<?xml version="1.0" standalone="no"?>
<!DOCTYPE svg PUBLIC "-//W3C//DTD SVG 20010904//EN"
 "http://www.w3.org/TR/2001/REC-SVG-20010904/DTD/svg10.dtd">
<svg version="1.0" xmlns="http://www.w3.org/2000/svg"
 width="700.000000pt" height="700.000000pt" viewBox="0 0 700.000000 700.000000"
 preserveAspectRatio="xMidYMid meet">
<metadata>
Created by potrace 1.14, written by Peter Selinger 2001-2017
</metadata>
<g transform="translate(0.000000,700.000000) scale(0.100000,-0.100000)"
fill="#000000" stroke="none">
<path d="M2791 6447 c-53 -27 -66 -60 -65 -165 1 -119 27 -230 135 -582 43
-139 77 -256 74 -258 -2 -2 -55 17 -117 43 -323 134 -533 203 -768 252 -105
22 -152 27 -292 27 -91 1 -170 -2 -174 -6 -13 -13 26 -130 62 -190 71 -117
245 -280 422 -396 199 -130 525 -275 749 -333 90 -23 142 -31 218 -32 91 -1
110 3 209 36 280 96 361 184 360 392 -2 199 -109 506 -256 732 -111 171 -345
420 -439 467 -59 29 -82 32 -118 13z"/>
<path d="M3721 5185 c-19 -146 -34 -184 -104 -271 -111 -140 -179 -173 -404
-201 -73 -9 -133 -20 -133 -24 0 -4 87 -35 193 -69 381 -122 444 -144 577
-199 176 -73 320 -160 450 -271 57 -50 110 -90 116 -90 18 0 44 41 96 145 64
127 88 206 99 315 14 142 4 242 -33 319 -97 203 -460 409 -770 437 l-74 6 -13
-97z"/>
<path d="M4750 4594 l0 -217 -74 -151 c-136 -278 -316 -454 -630 -615 -269
-138 -550 -217 -1131 -317 -387 -66 -541 -120 -728 -255 -262 -187 -490 -552
-523 -836 -14 -113 47 -245 167 -363 63 -62 270 -206 364 -253 151 -75 376
-141 540 -157 175 -18 558 -16 705 4 269 36 400 63 400 81 0 7 -23 41 -51 75
l-52 61 -51 -6 -51 -7 24 26 c21 22 23 29 13 51 -7 14 -12 45 -12 68 0 82 -17
115 -109 211 -111 115 -115 122 -102 191 13 70 31 104 77 145 54 47 109 67
302 111 425 95 770 233 1037 412 259 175 460 449 531 724 46 180 42 316 -18
518 -77 263 -301 529 -580 689 l-48 27 0 -217z m-2315 -2164 c40 -7 75 -21
110 -44 39 -27 60 -35 93 -34 50 0 90 -30 123 -94 23 -45 24 -56 2 -80 -24
-27 -59 -22 -137 21 -80 44 -168 72 -301 97 -92 17 -115 31 -115 69 0 62 89
87 225 65z"/>
<path d="M5391 3185 c-39 -69 -228 -267 -346 -362 -249 -200 -610 -363 -1085
-488 -251 -66 -308 -85 -341 -112 -45 -38 -40 -72 25 -142 68 -73 98 -126 130
-224 61 -190 219 -392 395 -506 101 -65 364 -141 487 -141 60 0 74 22 74 121
0 97 -22 215 -53 282 -31 69 -111 164 -200 237 -113 95 -347 203 -468 217 -27
3 -50 12 -53 19 -3 8 1 14 9 14 8 0 35 11 61 25 59 32 127 33 220 4 134 -41
235 -104 366 -226 49 -46 95 -83 102 -83 8 0 89 77 180 171 235 242 355 431
441 692 56 171 101 426 93 522 l-3 40 -34 -60z"/>
</g>
</svg>
